<svg width="149" height="29" fill="none" xmlns="http://www.w3.org/2000/svg"><g clip-path="url(#a)" fill="#1206A5"><path d="M11.733.099c-.914.06-1.734.16-2.438.304a13.04 13.04 0 0 0-2.014.564c-.633.249-1.222.542-1.75.868C1.86 3.987 0 8.295 0 14.64c0 2.61.303 4.85.908 6.643.61 1.82 1.601 3.374 2.944 4.624.622.58 1.277 1.079 1.954 1.471a9.778 9.778 0 0 0 2.273.946c.842.232 1.794.404 2.823.498 1.04.1 2.267.15 3.649.15h11.072V12.017H11.249v5.017h8.805v6.93h-4.915c-1.177 0-2.19-.05-2.999-.143-.792-.094-1.497-.255-2.091-.481a4.55 4.55 0 0 1-1.453-.863c-.407-.36-.803-.835-1.178-1.416a8.662 8.662 0 0 1-.748-1.4 8.571 8.571 0 0 1-.484-1.554A14.502 14.502 0 0 1 5.92 16.2l-.022-.32c-.033-.477-.05-.715-.06-1.18-.05-4.341 1.095-7.245 3.406-8.639.353-.21.694-.387 1.013-.514a5.48 5.48 0 0 1 1.09-.31c.412-.077.924-.133 1.519-.16a52.019 52.019 0 0 1 2.31-.045H25.63V.016H14.77c-1.107 0-2.125.027-3.038.083ZM35.061.016h-5.575v28.96h5.575V.017ZM44.483 22.246c-.435-.503-.754-1.184-.936-2.02-.198-.9-.292-2.184-.292-3.92V.054h-5.574v17.312c0 1.079.044 2.058.132 2.904.088.863.225 1.643.401 2.323.182.692.44 1.328.765 1.886.32.543.71 1.057 1.167 1.527a8.731 8.731 0 0 0 3.742 2.306c1.415.438 3.27.659 5.509.659h7.512v-5.017h-6.61c-2.806 0-4.765-.58-5.822-1.715l.006.006ZM85.245 14.221c0-2.422-.297-4.53-.886-6.266a12.124 12.124 0 0 0-2.862-4.652 11.053 11.053 0 0 0-1.931-1.604A8.837 8.837 0 0 0 77.276.68c-.836-.243-1.827-.42-2.938-.52-1.057-.1-2.372-.15-3.908-.15H58.967V28.98h11.892c1.195 0 2.218-.023 3.027-.061a18.682 18.682 0 0 0 2.251-.238 10.265 10.265 0 0 0 1.794-.481c.534-.205 1.079-.47 1.607-.786 1.893-1.084 3.335-2.765 4.287-5 .941-2.196 1.415-4.95 1.415-8.186l.005-.006Zm-5.834.63c0 1.472-.132 2.816-.39 4-.259 1.156-.66 2.13-1.21 2.92a5.151 5.151 0 0 1-2.4 2.047c-1.035.437-2.4.658-4.067.658h-6.791V4.514h6.494c1.667 0 3.01.177 3.99.52.935.332 1.711.89 2.3 1.643.644.846 1.156 1.98 1.524 3.374.369 1.416.562 3.03.562 4.8h-.011ZM97.952.012c-.292 0-1.056.06-1.855.647-.918.67-1.463 1.903-1.617 2.39L83.495 28.972h5.878l2.3-5.537c.275-.686.682-1.394.83-1.52.216-.178.518-.266.892-.266.138 0 .248.01.342.022h11.628l2.295 5.736c.126.293.385.824.71 1.122.357.321.902.465 1.766.465.171 0 .297-.005.308-.01l3.71-.029L102.382.017h-4.43V.012Zm5.564 17.157h-9.317l3.863-9.309.341-.868c.165-.415.314-.79.54-1.338l4.573 11.515ZM136.079 20.362 124.054 2.9l-.039-.05s-1.304-1.532-2.069-2.212c-.302-.26-.891-.614-2.504-.614-.269 0-.44 0-.556.016l-2.905-.044V28.98h5.36V8.713l11.914 17.13c.413.67 1.453 2.268 2.262 2.689.809.425 1.871.442 2.075.442h3.841V.018h-5.36v20.344h.006ZM147.558 2.343c0-.614-.369-.863-1.095-.863h-1.139v3.015h.49V3.206h.467l.771 1.289h.561l-.842-1.328c.451-.055.787-.282.787-.824Zm-1.744.432V1.9h.594c.303 0 .66.044.66.41 0 .43-.335.464-.71.464h-.544Z"></path><path d="M146.347.21c-1.436 0-2.663 1.09-2.663 2.728 0 1.549 1.106 2.721 2.663 2.721 1.42 0 2.653-1.084 2.653-2.721S147.767.21 146.347.21Zm0 4.973c-1.282 0-2.085-1.012-2.085-2.25 0-1.323.913-2.246 2.085-2.246 1.173 0 2.081.923 2.081 2.245s-.925 2.251-2.081 2.251Z"></path></g><defs><clipPath id="a"><path fill="#fff" d="M0 0h149v29H0z"></path></clipPath></defs></svg>
